<mxfile host="app.diagrams.net" agent="Mozilla/5.0 (Windows NT 10.0; Win64; x64) AppleWebKit/537.36 (KHTML, like Gecko) Chrome/139.0.0.0 Safari/537.36 Edg/139.0.0.0" version="28.1.0">
  <diagram name="페이지-1" id="6vnpz0ZEfud92NMsW8Sq">
    <mxGraphModel dx="2026" dy="1663" grid="1" gridSize="10" guides="1" tooltips="1" connect="1" arrows="1" fold="1" page="1" pageScale="1" pageWidth="827" pageHeight="583" math="0" shadow="0">
      <root>
        <mxCell id="0" />
        <mxCell id="1" parent="0" />
        <mxCell id="U6eh9wOa1geDRZTHXfTZ-62" value="" style="rounded=0;whiteSpace=wrap;html=1;fillColor=none;" vertex="1" parent="1">
          <mxGeometry x="520" y="80" width="200" height="200" as="geometry" />
        </mxCell>
        <mxCell id="U6eh9wOa1geDRZTHXfTZ-15" value="" style="rounded=0;whiteSpace=wrap;html=1;fillColor=#f5f5f5;fontColor=#333333;strokeColor=#666666;" vertex="1" parent="1">
          <mxGeometry x="440" y="40" width="40" height="480" as="geometry" />
        </mxCell>
        <mxCell id="U6eh9wOa1geDRZTHXfTZ-17" value="" style="rounded=0;whiteSpace=wrap;html=1;fillColor=#f5f5f5;fontColor=#333333;strokeColor=#666666;" vertex="1" parent="1">
          <mxGeometry x="360" y="40" width="40" height="480" as="geometry" />
        </mxCell>
        <mxCell id="U6eh9wOa1geDRZTHXfTZ-31" value="" style="rounded=1;whiteSpace=wrap;html=1;fillColor=#fff2cc;strokeColor=#d6b656;" vertex="1" parent="1">
          <mxGeometry x="240" y="80" width="80" height="80" as="geometry" />
        </mxCell>
        <mxCell id="U6eh9wOa1geDRZTHXfTZ-36" value="" style="rounded=1;whiteSpace=wrap;html=1;fillColor=#fff2cc;strokeColor=#d6b656;" vertex="1" parent="1">
          <mxGeometry x="120" y="80" width="80" height="80" as="geometry" />
        </mxCell>
        <mxCell id="U6eh9wOa1geDRZTHXfTZ-41" value="" style="rounded=0;whiteSpace=wrap;html=1;fillColor=#f5f5f5;fontColor=#333333;strokeColor=#666666;" vertex="1" parent="1">
          <mxGeometry x="200" y="-200" width="40" height="720" as="geometry" />
        </mxCell>
        <mxCell id="U6eh9wOa1geDRZTHXfTZ-42" value="" style="rounded=1;whiteSpace=wrap;html=1;fillColor=#fff2cc;strokeColor=#d6b656;" vertex="1" parent="1">
          <mxGeometry x="120" y="160" width="80" height="80" as="geometry" />
        </mxCell>
        <mxCell id="U6eh9wOa1geDRZTHXfTZ-43" value="" style="rounded=1;whiteSpace=wrap;html=1;fillColor=#fff2cc;strokeColor=#d6b656;" vertex="1" parent="1">
          <mxGeometry x="240" y="160" width="80" height="80" as="geometry" />
        </mxCell>
        <mxCell id="U6eh9wOa1geDRZTHXfTZ-44" value="" style="rounded=1;whiteSpace=wrap;html=1;fillColor=#fff2cc;strokeColor=#d6b656;" vertex="1" parent="1">
          <mxGeometry x="120" y="240" width="80" height="80" as="geometry" />
        </mxCell>
        <mxCell id="U6eh9wOa1geDRZTHXfTZ-45" value="" style="rounded=1;whiteSpace=wrap;html=1;fillColor=#fff2cc;strokeColor=#d6b656;" vertex="1" parent="1">
          <mxGeometry x="240" y="240" width="80" height="80" as="geometry" />
        </mxCell>
        <mxCell id="U6eh9wOa1geDRZTHXfTZ-46" value="" style="rounded=1;whiteSpace=wrap;html=1;fillColor=#fff2cc;strokeColor=#d6b656;" vertex="1" parent="1">
          <mxGeometry x="240" y="320" width="80" height="80" as="geometry" />
        </mxCell>
        <mxCell id="U6eh9wOa1geDRZTHXfTZ-47" value="" style="rounded=1;whiteSpace=wrap;html=1;fillColor=#fff2cc;strokeColor=#d6b656;" vertex="1" parent="1">
          <mxGeometry x="120" y="320" width="80" height="80" as="geometry" />
        </mxCell>
        <mxCell id="U6eh9wOa1geDRZTHXfTZ-48" value="" style="rounded=0;whiteSpace=wrap;html=1;fillColor=none;" vertex="1" parent="1">
          <mxGeometry x="120" y="280" width="200" height="200" as="geometry" />
        </mxCell>
        <mxCell id="U6eh9wOa1geDRZTHXfTZ-30" value="" style="rounded=0;whiteSpace=wrap;html=1;fillColor=none;" vertex="1" parent="1">
          <mxGeometry x="120" y="80" width="200" height="200" as="geometry" />
        </mxCell>
        <mxCell id="U6eh9wOa1geDRZTHXfTZ-49" value="" style="rounded=1;whiteSpace=wrap;html=1;fillColor=#dae8fc;strokeColor=#6c8ebf;" vertex="1" parent="1">
          <mxGeometry x="120" y="400" width="80" height="80" as="geometry" />
        </mxCell>
        <mxCell id="U6eh9wOa1geDRZTHXfTZ-50" value="" style="rounded=1;whiteSpace=wrap;html=1;fillColor=#dae8fc;strokeColor=#6c8ebf;" vertex="1" parent="1">
          <mxGeometry x="240" y="400" width="80" height="80" as="geometry" />
        </mxCell>
        <mxCell id="U6eh9wOa1geDRZTHXfTZ-51" value="" style="rounded=0;whiteSpace=wrap;html=1;fillColor=none;" vertex="1" parent="1">
          <mxGeometry x="320" y="80" width="200" height="200" as="geometry" />
        </mxCell>
        <mxCell id="U6eh9wOa1geDRZTHXfTZ-52" value="" style="rounded=1;whiteSpace=wrap;html=1;fillColor=#fff2cc;strokeColor=#d6b656;" vertex="1" parent="1">
          <mxGeometry x="640" y="400" width="80" height="80" as="geometry" />
        </mxCell>
        <mxCell id="U6eh9wOa1geDRZTHXfTZ-53" value="" style="rounded=1;whiteSpace=wrap;html=1;fillColor=#fff2cc;strokeColor=#d6b656;" vertex="1" parent="1">
          <mxGeometry x="520" y="400" width="80" height="80" as="geometry" />
        </mxCell>
        <mxCell id="U6eh9wOa1geDRZTHXfTZ-54" value="" style="rounded=0;whiteSpace=wrap;html=1;fillColor=#f5f5f5;fontColor=#333333;strokeColor=#666666;" vertex="1" parent="1">
          <mxGeometry x="600" y="-200" width="40" height="720" as="geometry" />
        </mxCell>
        <mxCell id="U6eh9wOa1geDRZTHXfTZ-55" value="" style="rounded=1;whiteSpace=wrap;html=1;fillColor=#fff2cc;strokeColor=#d6b656;" vertex="1" parent="1">
          <mxGeometry x="520" y="160" width="80" height="80" as="geometry" />
        </mxCell>
        <mxCell id="U6eh9wOa1geDRZTHXfTZ-56" value="" style="rounded=1;whiteSpace=wrap;html=1;fillColor=#fff2cc;strokeColor=#d6b656;" vertex="1" parent="1">
          <mxGeometry x="640" y="160" width="80" height="80" as="geometry" />
        </mxCell>
        <mxCell id="U6eh9wOa1geDRZTHXfTZ-57" value="" style="rounded=1;whiteSpace=wrap;html=1;fillColor=#fff2cc;strokeColor=#d6b656;" vertex="1" parent="1">
          <mxGeometry x="520" y="240" width="80" height="80" as="geometry" />
        </mxCell>
        <mxCell id="U6eh9wOa1geDRZTHXfTZ-58" value="" style="rounded=1;whiteSpace=wrap;html=1;fillColor=#fff2cc;strokeColor=#d6b656;" vertex="1" parent="1">
          <mxGeometry x="640" y="240" width="80" height="80" as="geometry" />
        </mxCell>
        <mxCell id="U6eh9wOa1geDRZTHXfTZ-59" value="" style="rounded=1;whiteSpace=wrap;html=1;fillColor=#fff2cc;strokeColor=#d6b656;" vertex="1" parent="1">
          <mxGeometry x="640" y="320" width="80" height="80" as="geometry" />
        </mxCell>
        <mxCell id="U6eh9wOa1geDRZTHXfTZ-60" value="" style="rounded=1;whiteSpace=wrap;html=1;fillColor=#fff2cc;strokeColor=#d6b656;" vertex="1" parent="1">
          <mxGeometry x="520" y="320" width="80" height="80" as="geometry" />
        </mxCell>
        <mxCell id="U6eh9wOa1geDRZTHXfTZ-61" value="" style="rounded=0;whiteSpace=wrap;html=1;fillColor=none;" vertex="1" parent="1">
          <mxGeometry x="520" y="280" width="200" height="200" as="geometry" />
        </mxCell>
        <mxCell id="U6eh9wOa1geDRZTHXfTZ-63" value="" style="rounded=1;whiteSpace=wrap;html=1;fillColor=#dae8fc;strokeColor=#6c8ebf;" vertex="1" parent="1">
          <mxGeometry x="520" y="80" width="80" height="80" as="geometry" />
        </mxCell>
        <mxCell id="U6eh9wOa1geDRZTHXfTZ-64" value="" style="rounded=1;whiteSpace=wrap;html=1;fillColor=#dae8fc;strokeColor=#6c8ebf;" vertex="1" parent="1">
          <mxGeometry x="640" y="80" width="80" height="80" as="geometry" />
        </mxCell>
        <mxCell id="U6eh9wOa1geDRZTHXfTZ-66" value="" style="rounded=0;whiteSpace=wrap;html=1;fillColor=none;" vertex="1" parent="1">
          <mxGeometry x="320" y="280" width="200" height="200" as="geometry" />
        </mxCell>
        <mxCell id="U6eh9wOa1geDRZTHXfTZ-68" value="" style="rounded=1;whiteSpace=wrap;html=1;fillColor=#d5e8d4;strokeColor=#82b366;" vertex="1" parent="1">
          <mxGeometry x="720" y="160" width="80" height="40" as="geometry" />
        </mxCell>
        <mxCell id="U6eh9wOa1geDRZTHXfTZ-69" value="" style="rounded=1;whiteSpace=wrap;html=1;fillColor=#d5e8d4;strokeColor=#82b366;" vertex="1" parent="1">
          <mxGeometry x="720" y="200" width="80" height="40" as="geometry" />
        </mxCell>
        <mxCell id="U6eh9wOa1geDRZTHXfTZ-70" value="" style="rounded=1;whiteSpace=wrap;html=1;fillColor=#d5e8d4;strokeColor=#82b366;" vertex="1" parent="1">
          <mxGeometry x="720" y="240" width="80" height="40" as="geometry" />
        </mxCell>
        <mxCell id="U6eh9wOa1geDRZTHXfTZ-71" value="" style="rounded=1;whiteSpace=wrap;html=1;fillColor=#d5e8d4;strokeColor=#82b366;" vertex="1" parent="1">
          <mxGeometry x="720" y="280" width="80" height="40" as="geometry" />
        </mxCell>
        <mxCell id="U6eh9wOa1geDRZTHXfTZ-72" value="" style="rounded=1;whiteSpace=wrap;html=1;fillColor=#d5e8d4;strokeColor=#82b366;" vertex="1" parent="1">
          <mxGeometry x="720" y="320" width="80" height="40" as="geometry" />
        </mxCell>
        <mxCell id="U6eh9wOa1geDRZTHXfTZ-73" value="" style="rounded=1;whiteSpace=wrap;html=1;fillColor=#d5e8d4;strokeColor=#82b366;" vertex="1" parent="1">
          <mxGeometry x="720" y="360" width="80" height="40" as="geometry" />
        </mxCell>
        <mxCell id="U6eh9wOa1geDRZTHXfTZ-76" value="" style="rounded=1;whiteSpace=wrap;html=1;fillColor=#d5e8d4;strokeColor=#82b366;" vertex="1" parent="1">
          <mxGeometry x="720" y="400" width="80" height="40" as="geometry" />
        </mxCell>
        <mxCell id="U6eh9wOa1geDRZTHXfTZ-77" value="" style="rounded=1;whiteSpace=wrap;html=1;fillColor=#d5e8d4;strokeColor=#82b366;" vertex="1" parent="1">
          <mxGeometry x="720" y="440" width="80" height="40" as="geometry" />
        </mxCell>
        <mxCell id="U6eh9wOa1geDRZTHXfTZ-78" value="" style="rounded=1;whiteSpace=wrap;html=1;fillColor=#d5e8d4;strokeColor=#82b366;" vertex="1" parent="1">
          <mxGeometry x="40" y="80" width="80" height="40" as="geometry" />
        </mxCell>
        <mxCell id="U6eh9wOa1geDRZTHXfTZ-79" value="" style="rounded=1;whiteSpace=wrap;html=1;fillColor=#d5e8d4;strokeColor=#82b366;" vertex="1" parent="1">
          <mxGeometry x="40" y="120" width="80" height="40" as="geometry" />
        </mxCell>
        <mxCell id="U6eh9wOa1geDRZTHXfTZ-80" value="" style="rounded=1;whiteSpace=wrap;html=1;fillColor=#d5e8d4;strokeColor=#82b366;" vertex="1" parent="1">
          <mxGeometry x="40" y="160" width="80" height="40" as="geometry" />
        </mxCell>
        <mxCell id="U6eh9wOa1geDRZTHXfTZ-81" value="" style="rounded=1;whiteSpace=wrap;html=1;fillColor=#d5e8d4;strokeColor=#82b366;" vertex="1" parent="1">
          <mxGeometry x="40" y="200" width="80" height="40" as="geometry" />
        </mxCell>
        <mxCell id="U6eh9wOa1geDRZTHXfTZ-82" value="" style="rounded=1;whiteSpace=wrap;html=1;fillColor=#d5e8d4;strokeColor=#82b366;" vertex="1" parent="1">
          <mxGeometry x="40" y="240" width="80" height="40" as="geometry" />
        </mxCell>
        <mxCell id="U6eh9wOa1geDRZTHXfTZ-83" value="" style="rounded=1;whiteSpace=wrap;html=1;fillColor=#d5e8d4;strokeColor=#82b366;" vertex="1" parent="1">
          <mxGeometry x="40" y="280" width="80" height="40" as="geometry" />
        </mxCell>
        <mxCell id="U6eh9wOa1geDRZTHXfTZ-84" value="" style="rounded=1;whiteSpace=wrap;html=1;fillColor=#d5e8d4;strokeColor=#82b366;" vertex="1" parent="1">
          <mxGeometry x="40" y="320" width="80" height="40" as="geometry" />
        </mxCell>
        <mxCell id="U6eh9wOa1geDRZTHXfTZ-85" value="" style="rounded=1;whiteSpace=wrap;html=1;fillColor=#d5e8d4;strokeColor=#82b366;" vertex="1" parent="1">
          <mxGeometry x="40" y="360" width="80" height="40" as="geometry" />
        </mxCell>
        <mxCell id="U6eh9wOa1geDRZTHXfTZ-87" value="" style="shape=corner;whiteSpace=wrap;html=1;dx=40;dy=40;" vertex="1" parent="1">
          <mxGeometry x="360" y="-80" width="160" height="120" as="geometry" />
        </mxCell>
        <mxCell id="U6eh9wOa1geDRZTHXfTZ-88" value="" style="shape=corner;whiteSpace=wrap;html=1;dx=40;dy=40;rotation=90;" vertex="1" parent="1">
          <mxGeometry x="520" y="-80" width="120" height="120" as="geometry" />
        </mxCell>
        <mxCell id="U6eh9wOa1geDRZTHXfTZ-89" value="" style="shape=corner;whiteSpace=wrap;html=1;dx=40;dy=40;" vertex="1" parent="1">
          <mxGeometry x="200" y="-80" width="120" height="120" as="geometry" />
        </mxCell>
        <mxCell id="U6eh9wOa1geDRZTHXfTZ-90" value="" style="shape=corner;whiteSpace=wrap;html=1;dx=40;dy=40;rotation=90;" vertex="1" parent="1">
          <mxGeometry x="340" y="-100" width="120" height="160" as="geometry" />
        </mxCell>
        <mxCell id="U6eh9wOa1geDRZTHXfTZ-91" value="" style="rounded=0;whiteSpace=wrap;html=1;fillColor=none;" vertex="1" parent="1">
          <mxGeometry x="320" y="-120" width="200" height="200" as="geometry" />
        </mxCell>
        <mxCell id="U6eh9wOa1geDRZTHXfTZ-92" value="" style="rounded=0;whiteSpace=wrap;html=1;fillColor=none;" vertex="1" parent="1">
          <mxGeometry x="520" y="-120" width="200" height="200" as="geometry" />
        </mxCell>
        <mxCell id="U6eh9wOa1geDRZTHXfTZ-93" value="" style="rounded=0;whiteSpace=wrap;html=1;fillColor=none;" vertex="1" parent="1">
          <mxGeometry x="120" y="-120" width="200" height="200" as="geometry" />
        </mxCell>
        <mxCell id="U6eh9wOa1geDRZTHXfTZ-98" value="" style="rounded=0;whiteSpace=wrap;html=1;fillColor=none;" vertex="1" parent="1">
          <mxGeometry x="320" y="480" width="200" height="200" as="geometry" />
        </mxCell>
        <mxCell id="U6eh9wOa1geDRZTHXfTZ-99" value="" style="rounded=0;whiteSpace=wrap;html=1;fillColor=none;" vertex="1" parent="1">
          <mxGeometry x="120" y="480" width="200" height="200" as="geometry" />
        </mxCell>
        <mxCell id="U6eh9wOa1geDRZTHXfTZ-100" value="" style="rounded=0;whiteSpace=wrap;html=1;fillColor=none;" vertex="1" parent="1">
          <mxGeometry x="520" y="480" width="200" height="200" as="geometry" />
        </mxCell>
      </root>
    </mxGraphModel>
  </diagram>
</mxfile>
